<?xml version="1.0" standalone="no"?>
<!DOCTYPE svg PUBLIC "-//W3C//DTD SVG 20010904//EN"
 "http://www.w3.org/TR/2001/REC-SVG-20010904/DTD/svg10.dtd">
<svg version="1.0" xmlns="http://www.w3.org/2000/svg"
 width="35px" height="35px" viewBox="0 0 500.000000 500.000000"
 preserveAspectRatio="xMidYMid meet">

<g transform="translate(0.000000,500.000000) scale(0.100000,-0.100000)"
fill="#E5AB2B" stroke="none">
<path d="M0 4175 l0 -825 65 0 65 0 0 760 0 760 760 0 760 0 0 65 0 65 -825 0
-825 0 0 -825z"/>
<path d="M3350 4935 l0 -65 760 0 760 0 0 -760 0 -760 65 0 65 0 0 825 0 825
-825 0 -825 0 0 -65z"/>
<path d="M2310 4034 c-372 -35 -720 -140 -1025 -311 -440 -245 -825 -609
-1130 -1068 -179 -270 -181 -278 -73 -458 248 -415 615 -804 1003 -1063 322
-215 660 -348 1035 -410 130 -21 485 -30 635 -15 642 62 1255 389 1753 933
221 241 492 638 492 719 0 52 -37 124 -151 294 -258 386 -602 734 -954 964
-316 206 -688 347 -1045 397 -104 14 -453 26 -540 18z m481 -278 c700 -94
1362 -547 1847 -1264 l84 -123 -48 -77 c-221 -353 -564 -708 -907 -936 -285
-190 -580 -308 -916 -368 -171 -30 -521 -32 -681 -4 -280 49 -495 122 -730
248 -397 214 -779 572 -1067 1001 -97 145 -96 125 -20 244 119 186 345 454
508 604 425 388 862 606 1349 674 129 18 449 18 581 1z"/>
<path d="M2335 3509 c-237 -35 -508 -176 -668 -349 -330 -356 -408 -852 -203
-1286 57 -120 112 -200 205 -297 138 -144 294 -244 471 -302 155 -50 218 -58
403 -52 189 6 290 29 444 102 440 208 704 662 661 1133 -37 403 -248 726 -609
930 -74 42 -253 101 -359 118 -93 15 -251 17 -345 3z m282 -260 c356 -49 654
-311 744 -655 30 -115 36 -287 15 -394 -69 -341 -314 -600 -660 -697 -46 -13
-99 -17 -221 -17 -148 0 -166 2 -245 28 -153 51 -252 109 -359 210 -270 258
-352 675 -197 1010 165 359 540 568 923 515z"/>
<path d="M2467 2880 c-214 -54 -296 -304 -153 -467 39 -44 122 -93 159 -93 15
0 11 -9 -22 -48 l-40 -49 34 -33 c19 -19 35 -39 35 -45 0 -6 -13 -24 -30 -40
-16 -16 -30 -33 -30 -39 0 -6 16 -27 36 -47 l36 -37 -38 -41 -37 -42 64 -65
c35 -35 67 -64 70 -64 4 0 28 26 53 58 l47 57 -6 225 -6 225 45 28 c51 31 96
91 116 150 16 52 9 162 -15 212 -55 113 -200 184 -318 155z m102 -105 c61 -31
65 -121 8 -156 -38 -23 -59 -24 -96 -4 -68 34 -59 136 14 166 29 12 43 11 74
-6z"/>
<path d="M0 825 l0 -825 825 0 825 0 0 65 0 65 -760 0 -760 0 0 760 0 760 -65
0 -65 0 0 -825z"/>
<path d="M4870 890 l0 -760 -760 0 -760 0 0 -65 0 -65 825 0 825 0 0 825 0
825 -65 0 -65 0 0 -760z"/>
</g>
</svg>
